<?xml version="1.0" standalone="no"?><!DOCTYPE svg PUBLIC "-//W3C//DTD SVG 1.1//EN" "http://www.w3.org/Graphics/SVG/1.1/DTD/svg11.dtd"><svg t="1613969525049" class="icon" viewBox="0 0 1024 1024" version="1.1" xmlns="http://www.w3.org/2000/svg" p-id="5915" xmlns:xlink="http://www.w3.org/1999/xlink" width="200" height="200"><defs><style type="text/css"></style></defs><path d="M922.666667 234.666667A64 64 0 0 0 874.666667 213.333333H312.32l-10.666667-73.173333a64 64 0 0 0-64-54.826667H128a42.666667 42.666667 0 1 0 0 85.333334h91.733333l31.36 213.333333 21.333334 161.92a106.666667 106.666667 0 0 0 106.666666 93.44h420.053334a106.666667 106.666667 0 0 0 106.666666-93.44L938.666667 285.226667a64 64 0 0 0-16-50.56z m-102.186667 300.8a21.333333 21.333333 0 0 1-21.333333 18.773333H377.6a21.333333 21.333333 0 0 1-21.333333-18.773333L326.613333 298.666667h523.52zM405.333333 682.666667a128 128 0 1 0 128 128 128 128 0 0 0-128-128z m0 170.666666a42.666667 42.666667 0 1 1 42.666667-42.666666 42.666667 42.666667 0 0 1-42.666667 42.666666zM746.666667 682.666667a128 128 0 1 0 128 128 128 128 0 0 0-128-128z m0 170.666666a42.666667 42.666667 0 1 1 42.666666-42.666666 42.666667 42.666667 0 0 1-42.666666 42.666666z" p-id="5916" fill="#707070"></path></svg>